<?xml version="1.0" standalone="no"?>
<!DOCTYPE svg PUBLIC "-//W3C//DTD SVG 20010904//EN"
 "http://www.w3.org/TR/2001/REC-SVG-20010904/DTD/svg10.dtd">
<svg version="1.0" xmlns="http://www.w3.org/2000/svg"
 width="200.000000pt" height="344.000000pt" viewBox="0 0 200.000000 344.000000"
 preserveAspectRatio="xMidYMid meet">

<g transform="translate(0.000000,344.000000) scale(0.100000,-0.100000)"
fill="#c01466" stroke="none">
<path d="M927 3430 c-89 -23 -196 -100 -246 -179 -75 -116 -164 -360 -208
-570 -23 -108 -27 -150 -27 -296 1 -139 4 -185 22 -255 25 -101 72 -220 142
-360 28 -56 49 -109 46 -117 -5 -13 -329 -484 -572 -832 l-80 -114 133 -345
c74 -191 135 -348 137 -350 8 -8 545 782 676 996 25 39 48 72 51 72 4 0 37
-48 75 -107 229 -363 643 -968 654 -956 10 12 265 676 264 688 -1 6 -148 223
-328 482 l-328 472 60 123 c128 262 151 344 159 558 4 130 2 175 -16 280 -37
214 -134 500 -212 621 -89 140 -266 223 -402 189z m148 -430 c97 -14 201 -66
259 -131 25 -28 46 -55 46 -60 0 -21 -51 -134 -100 -221 -59 -105 -269 -428
-279 -428 -3 0 -56 76 -117 168 -113 170 -220 360 -249 441 -15 43 -15 43 16
82 58 73 167 133 274 149 71 11 72 11 150 0z"/>
</g>
</svg>
